<svg xmlns="http://www.w3.org/2000/svg" viewBox="0 0 32 32">
  <defs>
    <linearGradient id="g" x1="0" y1="0" x2="1" y2="1">
      <stop offset="0%" stop-color="#1e3a5f"/>
      <stop offset="100%" stop-color="#3b82f6"/>
    </linearGradient>
  </defs>
  <rect width="32" height="32" rx="7" fill="url(#g)"/>
  <path d="M21 12h-2v-1.5A2.5 2.5 0 0016.5 8h-1A2.5 2.5 0 0013 10.5V12h-2a2 2 0 00-2 2v7a2 2 0 002 2h10a2 2 0 002-2v-7a2 2 0 00-2-2zm-6-1.5a.5.5 0 01.5-.5h1a.5.5 0 01.5.5V12h-2v-1.5z" fill="white"/>
</svg>
